:SAMPLES-PER-SECOND 30
:FULLY-SPECIFIED
:DEGREES
316
root  -76.784 41.6258 -1.56087 126.501 86.6152 125.196
RightUpLeg  -0.392765 -11.3601 -7.63896
RightLeg  9.36275 -9.86621 2.3272
RightFoot  -7.05973 -0.0342076 -0.367705
RightToes  -1.33073e-015 0 -3.6325e-017
Spine  2.9356 0.517114 -1.81296
Spine1  -1.46434 0.413907 0.99458
HEad  14.5271 1.29699 0.100404
LeftShoulder1  0.626326 -0.709101 -7.17082
LeftArm  -20.4705 4.99756 -3.44605
LeftForeArm  30.7164 -11.7017 -1.90087
LeftHand  -0.244104 0.0205437 5.32207
RightShoulder  0.0454308 -3.12208 3.9653
RightArm  -26.3717 -4.52204 1.32609
RightForeArm  -7.11595 10.4956 3.23411
RightHand  -2.93003 9.14413 -23.4124
LeftUpLeg  -0.122768 4.69919 1.41399
LeftLeg  0.0586457 18.3291 -5.09372
LeftFoot  -0.224343 0.104997 -1.06598
LeftToes  -7.82198e-011 2.46994e-011 -7.94165e-012
317
root  -76.7617 41.624 -1.74252 127.853 86.8617 126.555
RightUpLeg  -0.107002 -11.0537 -7.69828
RightLeg  8.82963 -10.058 2.45573
RightFoot  -6.80978 -0.0573304 0.281071
RightToes  -1.33073e-015 0 -3.6325e-017
Spine  3.21132 0.511556 -1.83078
Spine1  -1.6679 0.360553 1.21282
HEad  14.1862 1.52006 -0.258337
LeftShoulder1  0.582534 -0.663895 -6.16758
LeftArm  -19.7852 3.95008 -3.22149
LeftForeArm  31.073 -9.76375 -1.97453
LeftHand  -0.244104 0.0205437 5.32207
RightShoulder  0.00697137 -3.44212 3.06463
RightArm  -26.4305 -3.85729 1.04368
RightForeArm  -8.51604 9.90991 3.24767
RightHand  -3.24571 9.87277 -24.6556
LeftUpLeg  -0.256114 4.69672 1.36148
LeftLeg  0.444647 18.4703 -4.93565
LeftFoot  -0.522369 0.0805969 -0.817786
LeftToes  -7.82198e-011 2.46994e-011 -7.94165e-012
318
root  -76.7424 41.6258 -1.92716 130.321 87.101 129.05
RightUpLeg  0.2109 -10.7486 -7.75384
RightLeg  8.30461 -10.291 2.63622
RightFoot  -6.56467 -0.0716646 0.651236
RightToes  -1.33073e-015 0 -3.6325e-017
Spine  3.5514 0.442129 -1.75311
Spine1  -1.72154 0.245546 1.43642
HEad  13.7563 2.10151 -0.245296
LeftShoulder1  0.544897 -0.551662 -5.55747
LeftArm  -19.7483 3.4482 -3.52563
LeftForeArm  30.9054 -8.40785 -1.85562
LeftHand  -0.244104 0.0205437 5.32207
RightShoulder  -0.0273081 -3.761 2.46202
RightArm  -26.3054 -3.10619 1.28043
RightForeArm  -8.28073 8.98717 3.14692
RightHand  -3.29587 9.95259 -24.8886
LeftUpLeg  -0.57082 4.73307 1.35312
LeftLeg  1.28087 18.5875 -4.66632
LeftFoot  -0.827494 0.0534206 -0.526528
LeftToes  -7.82198e-011 2.46994e-011 -7.94165e-012
319
root  -76.7232 41.6291 -2.10101 130.271 87.384 128.912
RightUpLeg  0.354195 -10.5285 -7.83753
RightLeg  7.84421 -10.2847 2.84447
RightFoot  -6.38188 -0.0750742 0.734949
RightToes  -1.33073e-015 0 -3.6325e-017
Spine  3.89086 0.379157 -1.5921
Spine1  -1.90469 0.185422 1.41372
HEad  13.2496 2.45341 -0.187638
LeftShoulder1  0.511984 -0.423865 -5.10999
LeftArm  -19.7757 3.34271 -4.07339
LeftForeArm  30.1068 -7.43797 -1.74547
LeftHand  -0.244104 0.0205437 5.32207
RightShoulder  -0.0308837 -3.79895 2.34317
RightArm  -25.7923 -2.5423 1.58566
RightForeArm  -5.81954 7.85143 2.93727
RightHand  -3.04211 9.435 -23.8155
LeftUpLeg  -0.782618 4.84896 1.38171
LeftLeg  1.68823 18.6454 -4.67448
LeftFoot  -1.17756 0.0349023 -0.312616
LeftToes  -7.82198e-011 2.46994e-011 -7.94165e-012
320
root  -76.7085 41.6341 -2.26496 126.171 87.6974 124.699
RightUpLeg  0.450409 -10.3605 -7.96781
RightLeg  7.33817 -10.1023 3.03012
RightFoot  -6.18493 -0.0788821 0.825236
RightToes  -1.33073e-015 0 -3.6325e-017
Spine  4.27568 0.360017 -1.40464
Spine1  -2.12709 0.199191 1.21117
HEad  12.4488 2.41179 -0.444834
LeftShoulder1  0.530508 -0.571112 -5.0906
LeftArm  -19.4685 3.56589 -4.1728
LeftForeArm  29.1585 -6.67276 -1.74835
LeftHand  -0.244104 0.0205437 5.32207
RightShoulder  0.0239707 -3.28219 2.58906
RightArm  -24.7583 -2.45132 1.49842
RightForeArm  -2.76313 6.61349 2.75763
RightHand  -2.78236 8.9836 -22.528
LeftUpLeg  -0.805337 4.93159 1.33474
LeftLeg  1.62182 18.8765 -4.84291
LeftFoot  -1.44416 0.0137678 -0.0586057
LeftToes  -7.82198e-011 2.46994e-011 -7.94165e-012
321
root  -76.6906 41.6396 -2.4295 119.139 87.9858 117.563
RightUpLeg  0.512581 -10.2102 -8.08539
RightLeg  6.88743 -9.93123 3.10129
RightFoot  -5.94688 -0.0853453 0.953528
RightToes  -1.33073e-015 0 -3.6325e-017
Spine  4.5383 0.394297 -1.19727
Spine1  -2.03071 0.259919 1.03891
HEad  11.4088 2.37506 -0.775383
LeftShoulder1  0.604657 -0.965086 -5.67466
LeftArm  -19.2016 3.99151 -3.70795
LeftForeArm  28.5778 -6.29912 -1.74757
LeftHand  -0.244104 0.0205437 5.32207
RightShoulder  0.108185 -2.5161 2.87323
RightArm  -23.6426 -2.70887 1.19425
RightForeArm  -1.24721 5.4146 2.68976
RightHand  -2.69669 8.86607 -22.0314
LeftUpLeg  -0.80153 4.89 1.17175
LeftLeg  1.51485 19.313 -4.90588
LeftFoot  -1.56736 -0.0144515 0.279365
LeftToes  -7.82198e-011 2.46994e-011 -7.94165e-012
322
root  -76.6541 41.6393 -2.59512 110.407 88.2163 108.637
RightUpLeg  0.399177 -10.1097 -8.18044
RightLeg  6.64659 -9.68988 3.07913
RightFoot  -5.75904 -0.0940453 1.1288
RightToes  -1.33073e-015 0 -3.6325e-017
Spine  4.51146 0.48568 -0.982865
Spine1  -1.60821 0.367813 0.944463
HEad  10.528 2.59488 -0.778815
LeftShoulder1  0.676402 -1.25837 -6.44245
LeftArm  -19.2752 4.35299 -3.25817
LeftForeArm  28.5009 -6.37566 -1.67725
LeftHand  -0.244104 0.0205437 5.32207
RightShoulder  0.150119 -2.154 3.06803
RightArm  -23.1472 -2.78042 1.16015
RightForeArm  -1.31749 4.29648 2.61654
RightHand  -2.6893 8.78272 -22.096
LeftUpLeg  -0.928077 4.81008 0.980502
LeftLeg  1.54541 19.7238 -4.89783
LeftFoot  -1.74767 -0.0367996 0.565253
LeftToes  -7.82198e-011 2.46994e-011 -7.94165e-012
